<svg width="5629" height="820" viewBox="0 0 5629 820" fill="none" xmlns="http://www.w3.org/2000/svg">
<mask id="path-1-outside-1_1202_260" maskUnits="userSpaceOnUse" x="-21" y="-39" width="5675" height="879" fill="black">
<rect fill="white" x="-21" y="-39" width="5675" height="879"/>
<path d="M237.729 79.272C159.897 79.272 105.249 155.448 105.249 218.376C105.249 250.668 120.981 264.744 144.993 264.744C169.005 264.744 202.125 250.668 237.729 226.656C230.277 393.084 158.241 418.752 108.561 418.752C26.5886 418.752 3.40463 351.684 3.40463 289.584C3.40463 135.576 144.165 37.872 287.409 37.872H530.013C545.745 272.196 573.897 404.676 657.525 639H439.761C434.793 557.856 427.341 482.508 418.233 411.3C391.737 413.784 366.069 422.892 343.713 443.592C339.573 637.344 218.685 647.28 173.973 647.28C51.4286 647.28 2.57663 574.416 0.0926255 517.284C212.061 534.672 294.033 290.412 294.861 162.9C295.689 92.52 271.677 79.272 237.729 79.272ZM342.885 403.848C362.757 379.008 384.285 361.62 409.125 349.2C392.565 254.808 369.381 167.04 331.293 80.1C333.777 172.836 341.229 327.672 342.885 403.848ZM661.6 639C696.376 471.744 696.376 393.912 661.6 226.656C686.44 231.624 708.796 234.108 729.496 234.108C781.66 234.108 823.888 220.032 867.772 200.988C861.148 236.592 854.524 268.884 850.384 299.52C876.052 244.872 922.42 200.988 991.972 200.988C1067.32 200.988 1092.99 252.324 1084.71 322.704C1073.12 427.86 1079.74 516.456 1104.58 639H898.408C926.56 504.036 931.528 427.86 931.528 393.084C931.528 336.78 919.108 321.876 900.064 321.876C869.428 321.876 845.416 359.964 842.932 384.804C833.824 464.292 847.9 541.296 867.772 639H661.6ZM1130.74 110.736C1130.74 56.916 1170.48 20.484 1230.93 20.484C1290.54 20.484 1330.29 56.916 1330.29 110.736C1330.29 165.384 1290.54 200.988 1230.93 200.988C1170.48 200.988 1130.74 165.384 1130.74 110.736ZM1124.12 639C1158.89 471.744 1158.89 393.912 1124.12 226.656C1148.96 231.624 1171.31 234.108 1192.01 234.108C1244.18 234.108 1286.4 220.032 1330.29 200.988C1295.51 368.244 1295.51 471.744 1330.29 639H1124.12ZM1352.14 639C1386.92 471.744 1386.92 393.912 1352.14 226.656C1376.98 231.624 1399.34 234.108 1420.04 234.108C1472.2 234.108 1514.43 220.032 1558.31 200.988C1551.69 236.592 1545.06 268.884 1540.92 299.52C1566.59 244.872 1612.96 200.988 1682.51 200.988C1750.41 200.988 1777.73 244.044 1776.08 305.316C1800.92 248.184 1848.94 200.988 1920.98 200.988C1995.5 200.988 2021.16 252.324 2013.71 322.704C2001.29 427.86 2007.92 516.456 2032.76 639H1826.58C1855.56 504.036 1859.7 427.86 1859.7 393.084C1859.7 336.78 1847.28 321.876 1829.07 321.876C1796.78 321.876 1772.76 362.448 1770.28 387.288C1762.83 465.948 1775.25 542.124 1795.12 639H1588.95C1617.1 504.036 1622.07 427.86 1622.07 393.084C1622.07 336.78 1609.65 321.876 1590.6 321.876C1559.97 321.876 1535.96 359.964 1533.47 384.804C1524.36 464.292 1538.44 541.296 1558.31 639H1352.14ZM2439.15 311.94C2439.15 379.836 2368.77 436.14 2275.21 436.14C2259.48 436.14 2243.75 434.484 2227.19 431.172C2242.92 489.96 2276.04 518.94 2328.2 518.94C2351.39 518.94 2399.41 513.144 2420.11 441.108L2424.25 441.936C2435.01 557.028 2383.68 647.28 2255.34 647.28C2129.48 647.28 2045.85 561.168 2045.85 427.86C2045.85 290.412 2135.28 200.988 2274.38 200.988C2374.57 200.988 2439.15 247.356 2439.15 311.94ZM2221.39 395.568C2279.35 391.428 2285.97 330.156 2285.97 298.692C2285.97 264.744 2276.87 235.764 2255.34 235.764C2236.29 235.764 2217.25 256.464 2217.25 341.748C2217.25 361.62 2219.73 379.836 2221.39 395.568ZM2615.6 282.96C2615.6 385.632 2822.6 367.416 2822.6 501.552C2822.6 579.384 2751.39 647.28 2625.53 647.28C2522.86 647.28 2458.28 600.912 2458.28 551.232C2458.28 518.112 2487.26 491.616 2531.97 491.616C2555.98 491.616 2585.79 499.896 2617.25 519.768C2566.74 583.524 2583.3 613.332 2618.91 613.332C2646.23 613.332 2668.59 594.288 2668.59 567.792C2668.59 485.82 2461.59 484.992 2461.59 343.404C2461.59 268.884 2520.38 200.988 2648.72 200.988C2743.11 200.988 2808.52 238.248 2808.52 289.584C2808.52 323.532 2781.2 344.232 2732.34 344.232C2709.16 344.232 2681.84 340.092 2649.54 329.328C2700.05 265.572 2683.49 235.764 2653.68 235.764C2630.5 235.764 2615.6 253.98 2615.6 282.96ZM2840.74 639C2875.52 394.74 2875.52 282.96 2840.74 37.872C2865.58 45.324 2887.94 48.636 2909.46 48.636C2960.8 48.636 3003.03 27.936 3046.91 0.611977C3029.52 124.812 3021.24 224.172 3021.24 323.532C3043.6 258.948 3093.28 200.988 3171.94 200.988C3247.29 200.988 3272.96 252.324 3264.68 322.704C3253.08 427.86 3259.71 516.456 3284.55 639H3078.38C3107.36 504.036 3111.5 427.86 3111.5 393.084C3111.5 336.78 3099.08 321.876 3080.03 321.876C3049.4 321.876 3022.9 360.792 3022.07 385.632C3018.76 462.636 3032.84 544.608 3046.91 639H2840.74ZM3700.15 152.136C3700.15 297.036 4024.73 267.228 4024.73 469.26C4024.73 581.868 3922.88 647.28 3762.25 647.28C3623.15 647.28 3530.41 598.428 3530.41 523.08C3530.41 470.088 3576.78 422.064 3647.99 422.064C3689.39 422.064 3740.72 438.624 3795.37 480.852C3718.37 494.928 3691.87 544.608 3691.87 570.276C3691.87 595.944 3717.54 613.332 3756.46 613.332C3804.48 613.332 3852.5 586.008 3852.5 533.844C3852.5 403.02 3539.52 423.72 3539.52 224.172C3539.52 119.844 3625.63 29.5919 3792.89 29.5919C3907.98 29.5919 4009 72.648 4009 152.136C4009 206.784 3962.63 254.808 3891.42 254.808C3849.19 254.808 3798.68 238.248 3743.21 196.02C3847.54 165.384 3847.54 122.328 3847.54 110.736C3847.54 81.756 3816.9 63.54 3785.44 63.54C3737.41 63.54 3700.15 103.284 3700.15 152.136ZM4044.91 110.736C4044.91 56.916 4084.66 20.484 4145.1 20.484C4204.72 20.484 4244.46 56.916 4244.46 110.736C4244.46 165.384 4204.72 200.988 4145.1 200.988C4084.66 200.988 4044.91 165.384 4044.91 110.736ZM4038.29 639C4073.06 471.744 4073.06 393.912 4038.29 226.656C4063.13 231.624 4085.48 234.108 4106.18 234.108C4158.35 234.108 4200.58 220.032 4244.46 200.988C4209.68 368.244 4209.68 471.744 4244.46 639H4038.29ZM4266.31 639C4301.09 471.744 4301.09 393.912 4266.31 226.656C4291.15 231.624 4313.51 234.108 4334.21 234.108C4386.37 234.108 4428.6 220.032 4472.48 200.988C4465.86 236.592 4459.23 268.884 4455.09 299.52C4480.76 244.872 4527.13 200.988 4596.68 200.988C4672.03 200.988 4697.7 252.324 4689.42 322.704C4677.83 427.86 4684.45 516.456 4709.29 639H4503.12C4531.27 504.036 4536.24 427.86 4536.24 393.084C4536.24 336.78 4523.82 321.876 4504.77 321.876C4474.14 321.876 4450.13 359.964 4447.64 384.804C4438.53 464.292 4452.61 541.296 4472.48 639H4266.31ZM4870.51 694.476C4964.08 694.476 4984.78 610.02 4987.26 528.048C4965.73 591.804 4919.36 647.28 4853.95 647.28C4772.81 647.28 4725.61 565.308 4725.61 427.86C4725.61 290.412 4772.81 200.988 4855.61 200.988C4906.12 200.988 4945.86 236.592 4970.7 282.132C4966.56 264.744 4964.08 246.528 4959.94 226.656C4984.78 231.624 5007.13 234.108 5027.83 234.108C5080 234.108 5122.22 220.032 5166.11 200.988C5148.72 287.1 5140.44 355.824 5140.44 428.688C5140.44 490.788 5146.24 609.192 5142.1 657.216C5128.85 811.224 4964.9 819.504 4925.16 819.504C4878.79 819.504 4728.1 807.912 4746.31 648.936H4754.59C4764.53 677.088 4827.46 694.476 4870.51 694.476ZM4937.58 526.392C4985.6 526.392 4985.6 454.356 4985.6 422.892C4985.6 392.256 4980.64 321.876 4937.58 321.876C4913.57 321.876 4897.84 363.276 4897.84 422.064C4897.84 480.852 4913.57 526.392 4937.58 526.392ZM5184.85 639C5219.63 394.74 5219.63 282.96 5184.85 37.872C5209.69 45.324 5232.05 48.636 5253.58 48.636C5304.91 48.636 5347.14 27.936 5391.03 0.611977C5373.64 124.812 5365.36 224.172 5365.36 323.532C5387.71 258.948 5437.39 200.988 5516.05 200.988C5591.4 200.988 5617.07 252.324 5608.79 322.704C5597.2 427.86 5603.82 516.456 5628.66 639H5422.49C5451.47 504.036 5455.61 427.86 5455.61 393.084C5455.61 336.78 5443.19 321.876 5424.15 321.876C5393.51 321.876 5367.01 360.792 5366.19 385.632C5362.87 462.636 5376.95 544.608 5391.03 639H5184.85Z"/>
</mask>
<path d="M237.729 226.656L257.709 227.551L259.486 187.859L226.546 210.075L237.729 226.656ZM530.013 37.872L549.968 36.5323L548.715 17.872H530.013V37.872ZM657.525 639V659H685.898L676.361 632.277L657.525 639ZM439.761 639L419.798 640.222L420.948 659H439.761V639ZM418.233 411.3L438.071 408.763L435.618 389.582L416.366 391.387L418.233 411.3ZM343.713 443.592L330.124 428.917L323.898 434.682L323.717 443.165L343.713 443.592ZM0.0926255 517.284L1.72776 497.351L-20.8735 495.497L-19.8885 518.153L0.0926255 517.284ZM294.861 162.9L274.862 162.665L274.861 162.717L274.861 162.77L294.861 162.9ZM342.885 403.848L322.889 404.283L324.087 459.361L358.502 416.342L342.885 403.848ZM409.125 349.2L418.069 367.089L431.399 360.423L428.824 345.744L409.125 349.2ZM331.293 80.1L349.612 72.0745L311.3 80.6355L331.293 80.1ZM237.729 59.272C191.888 59.272 153.583 81.7612 127.207 112.105C101.029 142.221 85.2486 181.545 85.2486 218.376H125.249C125.249 192.279 136.792 162.051 157.396 138.347C177.802 114.871 205.737 99.272 237.729 99.272V59.272ZM85.2486 218.376C85.2486 237.499 89.9004 254.684 101.381 267.193C113.11 279.972 129.069 284.744 144.993 284.744V244.744C136.904 244.744 132.992 242.478 130.851 240.146C128.463 237.544 125.249 231.545 125.249 218.376H85.2486ZM144.993 284.744C175.247 284.744 212.575 267.743 248.911 243.237L226.546 210.075C191.674 233.593 162.762 244.744 144.993 244.744V284.744ZM217.749 225.761C214.13 306.583 194.948 349.184 174.29 371.542C154.125 393.367 129.877 398.752 108.561 398.752V438.752C136.925 438.752 173.534 431.303 203.67 398.687C233.313 366.604 253.875 313.157 257.709 227.551L217.749 225.761ZM108.561 398.752C74.06 398.752 54.1871 385.172 41.9813 366.509C28.9311 346.555 23.4046 318.701 23.4046 289.584H-16.5954C-16.5954 322.567 -10.5299 359.297 8.50498 388.402C28.3841 418.798 61.0892 438.752 108.561 438.752V398.752ZM23.4046 289.584C23.4046 150.097 151.38 57.872 287.409 57.872V17.872C136.949 17.872 -16.5954 121.054 -16.5954 289.584H23.4046ZM287.409 57.872H530.013V17.872H287.409V57.872ZM510.058 39.2117C525.92 275.483 554.48 409.772 638.688 645.723L676.361 632.277C593.314 399.58 565.569 268.909 549.968 36.5323L510.058 39.2117ZM657.525 619H439.761V659H657.525V619ZM459.723 637.778C454.727 556.164 447.231 480.376 438.071 408.763L398.394 413.837C407.45 484.64 414.859 559.548 419.798 640.222L459.723 637.778ZM416.366 391.387C386.322 394.204 356.267 404.711 330.124 428.917L357.301 458.267C375.87 441.073 397.152 433.364 420.099 431.213L416.366 391.387ZM323.717 443.165C321.741 535.662 292.223 579.919 262.212 601.978C231.178 624.789 195.177 627.28 173.973 627.28V667.28C197.48 667.28 244.279 664.803 285.902 634.208C328.549 602.861 361.545 545.274 363.708 444.019L323.717 443.165ZM173.973 627.28C116.803 627.28 79.0337 610.375 55.4773 588.92C31.707 567.271 21.0923 539.842 20.0737 516.415L-19.8885 518.153C-18.4231 551.858 -3.36972 589.427 28.543 618.493C60.6696 647.753 108.598 667.28 173.973 667.28V627.28ZM-1.54251 537.217C114.079 546.702 193.85 484.105 243.581 405.082C292.897 326.719 314.425 230.036 314.86 163.03L274.861 162.77C274.468 223.276 254.597 312.479 209.727 383.777C165.273 454.415 98.074 505.254 1.72776 497.351L-1.54251 537.217ZM314.859 163.135C315.288 126.677 309.558 99.6277 294.668 81.8511C278.831 62.9443 256.847 59.272 237.729 59.272V99.272C252.559 99.272 259.554 102.224 264.003 107.536C269.4 113.978 275.261 128.742 274.862 162.665L314.859 163.135ZM358.502 416.342C376.695 393.601 395.995 378.125 418.069 367.089L400.18 331.311C372.574 345.115 348.818 364.415 327.267 391.354L358.502 416.342ZM428.824 345.744C412.075 250.274 388.515 160.875 349.612 72.0745L312.973 88.1255C350.246 173.205 373.055 259.342 389.426 352.656L428.824 345.744ZM311.3 80.6355C313.828 175.023 321.215 327.282 322.889 404.283L362.88 403.413C361.242 328.062 353.725 170.649 351.285 79.5645L311.3 80.6355ZM661.6 639L642.019 634.929L637.014 659H661.6V639ZM661.6 226.656L665.522 207.044L635.861 201.112L642.019 230.727L661.6 226.656ZM867.772 200.988L887.435 204.646L894.314 167.668L859.81 182.641L867.772 200.988ZM850.384 299.52L830.564 296.842L868.487 308.023L850.384 299.52ZM1084.71 322.704L1064.84 320.367L1064.84 320.44L1064.83 320.513L1084.71 322.704ZM1104.58 639V659H1129.04L1124.18 635.027L1104.58 639ZM898.408 639L878.829 634.916L873.806 659H898.408V639ZM842.932 384.804L862.802 387.081L862.818 386.938L862.833 386.794L842.932 384.804ZM867.772 639V659H892.249L887.371 635.014L867.772 639ZM681.181 643.071C698.682 558.899 707.682 496.093 707.682 432.828C707.682 369.563 698.682 306.757 681.181 222.585L642.019 230.727C659.294 313.811 667.682 373.549 667.682 432.828C667.682 492.107 659.294 551.845 642.019 634.929L681.181 643.071ZM657.678 246.268C683.505 251.433 707.202 254.108 729.496 254.108V214.108C710.39 214.108 689.374 211.815 665.522 207.044L657.678 246.268ZM729.496 254.108C785.617 254.108 830.768 238.848 875.734 219.335L859.81 182.641C817.008 201.216 777.702 214.108 729.496 214.108V254.108ZM848.109 197.33C841.583 232.407 834.792 265.553 830.564 296.842L870.204 302.198C874.256 272.215 880.713 240.777 887.435 204.646L848.109 197.33ZM868.487 308.023C892.038 257.88 932.609 220.988 991.972 220.988V180.988C912.231 180.988 860.065 231.864 832.281 291.017L868.487 308.023ZM991.972 220.988C1024.78 220.988 1043.01 231.857 1053.19 246.747C1064.14 262.741 1068.71 287.528 1064.84 320.367L1104.57 325.041C1108.99 287.5 1104.86 251.429 1086.21 224.16C1066.79 195.787 1034.51 180.988 991.972 180.988V220.988ZM1064.83 320.513C1052.95 428.233 1059.84 518.971 1084.98 642.973L1124.18 635.027C1099.64 513.941 1093.28 427.487 1104.59 324.895L1064.83 320.513ZM1104.58 619H898.408V659H1104.58V619ZM917.987 643.084C946.331 507.195 951.528 429.602 951.528 393.084H911.528C911.528 426.118 906.789 500.877 878.829 634.916L917.987 643.084ZM951.528 393.084C951.528 364.332 948.505 342.488 940.757 327.285C936.642 319.211 930.915 312.444 923.21 307.879C915.553 303.341 907.459 301.876 900.064 301.876V341.876C902.191 341.876 902.791 342.274 902.818 342.29C902.884 342.329 903.096 342.461 903.447 342.855C903.817 343.272 904.411 344.06 905.118 345.447C908.341 351.772 911.528 365.532 911.528 393.084H951.528ZM900.064 301.876C876.195 301.876 857.392 316.507 845.349 331.5C833.193 346.632 824.72 365.931 823.031 382.814L862.833 386.794C863.628 378.837 868.403 366.672 876.533 356.55C884.776 346.289 893.297 341.876 900.064 341.876V301.876ZM823.062 382.527C813.541 465.62 828.37 545.622 848.173 642.986L887.371 635.014C867.43 536.97 854.107 462.964 862.802 387.081L823.062 382.527ZM867.772 619H661.6V659H867.772V619ZM1124.12 639L1104.53 634.929L1099.53 659H1124.12V639ZM1124.12 226.656L1128.04 207.044L1098.38 201.112L1104.53 230.727L1124.12 226.656ZM1330.29 200.988L1349.87 205.059L1357.72 167.28L1322.33 182.641L1330.29 200.988ZM1330.29 639V659H1354.87L1349.87 634.929L1330.29 639ZM1150.74 110.736C1150.74 89.0159 1158.62 72.0003 1171.59 60.254C1184.74 48.3512 1204.69 40.484 1230.93 40.484V0.483968C1196.72 0.483968 1166.58 10.8327 1144.74 30.6009C1122.74 50.5257 1110.74 78.6361 1110.74 110.736H1150.74ZM1230.93 40.484C1256.69 40.484 1276.43 48.312 1289.5 60.2143C1302.41 71.9704 1310.29 89.01 1310.29 110.736H1350.29C1350.29 78.642 1338.3 50.5555 1316.43 30.6406C1294.72 10.872 1264.78 0.483968 1230.93 0.483968V40.484ZM1310.29 110.736C1310.29 132.941 1302.36 149.927 1289.55 161.524C1276.53 173.298 1256.81 180.988 1230.93 180.988V220.988C1264.67 220.988 1294.62 210.876 1316.38 191.186C1338.34 171.319 1350.29 143.179 1350.29 110.736H1310.29ZM1230.93 180.988C1204.57 180.988 1184.63 173.26 1171.54 161.485C1158.66 149.897 1150.74 132.936 1150.74 110.736H1110.74C1110.74 143.184 1122.69 171.349 1144.79 191.225C1166.68 210.914 1196.84 220.988 1230.93 220.988V180.988ZM1143.7 643.071C1161.2 558.899 1170.2 496.093 1170.2 432.828C1170.2 369.563 1161.2 306.757 1143.7 222.585L1104.53 230.727C1121.81 313.811 1130.2 373.549 1130.2 432.828C1130.2 492.107 1121.81 551.845 1104.53 634.929L1143.7 643.071ZM1120.19 246.268C1146.02 251.433 1169.72 254.108 1192.01 254.108V214.108C1172.91 214.108 1151.89 211.815 1128.04 207.044L1120.19 246.268ZM1192.01 254.108C1248.13 254.108 1293.28 238.848 1338.25 219.335L1322.33 182.641C1279.52 201.216 1240.22 214.108 1192.01 214.108V254.108ZM1310.71 196.917C1275.37 366.858 1275.37 473.13 1310.71 643.071L1349.87 634.929C1315.65 470.358 1315.65 369.63 1349.87 205.059L1310.71 196.917ZM1330.29 619H1124.12V659H1330.29V619ZM1352.14 639L1332.56 634.929L1327.55 659H1352.14V639ZM1352.14 226.656L1356.06 207.044L1326.4 201.112L1332.56 230.727L1352.14 226.656ZM1558.31 200.988L1577.97 204.646L1584.85 167.668L1550.35 182.641L1558.31 200.988ZM1540.92 299.52L1521.1 296.842L1559.03 308.023L1540.92 299.52ZM1776.08 305.316L1756.08 304.776L1794.42 313.29L1776.08 305.316ZM2013.71 322.704L2033.57 325.05L2033.59 324.93L2033.6 324.81L2013.71 322.704ZM2032.76 639V659H2057.22L2052.36 635.027L2032.76 639ZM1826.58 639L1807.03 634.801L1801.83 659H1826.58V639ZM1770.28 387.288L1750.38 385.298L1750.37 385.35L1750.37 385.402L1770.28 387.288ZM1795.12 639V659H1819.64L1814.71 634.981L1795.12 639ZM1588.95 639L1569.37 634.916L1564.34 659H1588.95V639ZM1533.47 384.804L1553.34 387.081L1553.36 386.938L1553.37 386.794L1533.47 384.804ZM1558.31 639V659H1582.79L1577.91 635.014L1558.31 639ZM1371.72 643.071C1389.22 558.899 1398.22 496.093 1398.22 432.828C1398.22 369.563 1389.22 306.757 1371.72 222.585L1332.56 230.727C1349.83 313.811 1358.22 373.549 1358.22 432.828C1358.22 492.107 1349.83 551.845 1332.56 634.929L1371.72 643.071ZM1348.22 246.268C1374.04 251.433 1397.74 254.108 1420.04 254.108V214.108C1400.93 214.108 1379.91 211.815 1356.06 207.044L1348.22 246.268ZM1420.04 254.108C1476.16 254.108 1521.31 238.848 1566.27 219.335L1550.35 182.641C1507.55 201.216 1468.24 214.108 1420.04 214.108V254.108ZM1538.65 197.33C1532.12 232.407 1525.33 265.553 1521.1 296.842L1560.74 302.198C1564.79 272.215 1571.25 240.777 1577.97 204.646L1538.65 197.33ZM1559.03 308.023C1582.58 257.88 1623.15 220.988 1682.51 220.988V180.988C1602.77 180.988 1550.6 231.864 1522.82 291.017L1559.03 308.023ZM1682.51 220.988C1712.02 220.988 1729.49 230.147 1739.91 242.859C1750.85 256.199 1756.84 276.832 1756.08 304.776L1796.07 305.856C1796.97 272.528 1790.12 240.997 1770.84 217.491C1751.04 193.357 1720.9 180.988 1682.51 180.988V220.988ZM1794.42 313.29C1817.24 260.802 1859.45 220.988 1920.98 220.988V180.988C1838.43 180.988 1784.59 235.566 1757.73 297.341L1794.42 313.29ZM1920.98 220.988C1953.27 220.988 1971.34 231.788 1981.58 246.747C1992.58 262.833 1997.3 287.719 1993.82 320.598L2033.6 324.81C2037.57 287.309 2033.18 251.337 2014.59 224.16C1995.22 195.856 1963.2 180.988 1920.98 180.988V220.988ZM1993.85 320.358C1981.12 428.173 1988.02 518.975 2013.15 642.973L2052.36 635.027C2027.81 513.937 2021.47 427.547 2033.57 325.05L1993.85 320.358ZM2032.76 619H1826.58V659H2032.76V619ZM1846.14 643.199C1875.36 507.113 1879.7 429.513 1879.7 393.084H1839.7C1839.7 426.207 1835.77 500.959 1807.03 634.801L1846.14 643.199ZM1879.7 393.084C1879.7 364.297 1876.67 342.549 1869.1 327.422C1865.1 319.417 1859.52 312.637 1851.97 308.019C1844.41 303.403 1836.4 301.876 1829.07 301.876V341.876C1829.99 341.876 1830.53 341.971 1830.79 342.036C1831.03 342.095 1831.1 342.141 1831.11 342.15C1831.12 342.159 1831.31 342.271 1831.66 342.671C1832.03 343.094 1832.62 343.898 1833.33 345.31C1836.53 351.711 1839.7 365.567 1839.7 393.084H1879.7ZM1829.07 301.876C1804.19 301.876 1784.94 317.333 1772.73 332.954C1760.43 348.709 1752.05 368.559 1750.38 385.298L1790.18 389.278C1790.99 381.177 1795.86 368.321 1804.26 357.58C1812.75 346.705 1821.66 341.876 1829.07 341.876V301.876ZM1750.37 385.402C1742.61 467.309 1755.64 546.074 1775.53 643.019L1814.71 634.981C1794.85 538.174 1783.05 464.587 1790.19 389.174L1750.37 385.402ZM1795.12 619H1588.95V659H1795.12V619ZM1608.53 643.084C1636.87 507.195 1642.07 429.602 1642.07 393.084H1602.07C1602.07 426.118 1597.33 500.877 1569.37 634.916L1608.53 643.084ZM1642.07 393.084C1642.07 364.332 1639.04 342.488 1631.3 327.285C1627.18 319.211 1621.45 312.444 1613.75 307.879C1606.09 303.341 1598 301.876 1590.6 301.876V341.876C1592.73 341.876 1593.33 342.274 1593.36 342.29C1593.42 342.329 1593.63 342.461 1593.99 342.855C1594.36 343.272 1594.95 344.06 1595.66 345.447C1598.88 351.772 1602.07 365.532 1602.07 393.084H1642.07ZM1590.6 301.876C1566.73 301.876 1547.93 316.507 1535.89 331.5C1523.73 346.632 1515.26 365.931 1513.57 382.814L1553.37 386.794C1554.17 378.837 1558.94 366.672 1567.07 356.55C1575.31 346.289 1583.84 341.876 1590.6 341.876V301.876ZM1513.6 382.527C1504.08 465.62 1518.91 545.622 1538.71 642.986L1577.91 635.014C1557.97 536.97 1544.65 462.964 1553.34 387.081L1513.6 382.527ZM1558.31 619H1352.14V659H1558.31V619ZM2227.19 431.172L2231.11 411.56L2199.54 405.248L2207.87 436.342L2227.19 431.172ZM2420.11 441.108L2424.03 421.496L2405.97 417.885L2400.89 435.584L2420.11 441.108ZM2424.25 441.936L2444.16 440.074L2442.78 425.245L2428.17 422.324L2424.25 441.936ZM2221.39 395.568L2201.5 397.662L2203.52 416.895L2222.82 415.517L2221.39 395.568ZM2419.15 311.94C2419.15 364.252 2362.89 416.14 2275.21 416.14V456.14C2374.65 456.14 2459.15 395.42 2459.15 311.94H2419.15ZM2275.21 416.14C2260.92 416.14 2246.51 414.64 2231.11 411.56L2223.26 450.784C2240.99 454.328 2258.03 456.14 2275.21 456.14V416.14ZM2207.87 436.342C2216.38 468.164 2230.19 494.157 2250.9 512.188C2271.93 530.491 2298.19 538.94 2328.2 538.94V498.94C2306.05 498.94 2289.67 492.899 2277.16 482.015C2264.35 470.859 2253.72 452.968 2246.51 426.002L2207.87 436.342ZM2328.2 538.94C2341.37 538.94 2363.38 537.334 2385.35 524.205C2407.82 510.773 2427.8 486.776 2439.33 446.632L2400.89 435.584C2391.72 467.476 2377.34 482.395 2364.83 489.87C2351.81 497.648 2338.22 498.94 2328.2 498.94V538.94ZM2416.19 460.72L2420.33 461.548L2428.17 422.324L2424.03 421.496L2416.19 460.72ZM2404.34 443.798C2409.44 498.31 2399.53 544.131 2375.92 575.818C2352.86 606.769 2314.45 627.28 2255.34 627.28V667.28C2324.57 667.28 2376 642.664 2408 599.717C2439.45 557.505 2449.83 500.654 2444.16 440.074L2404.34 443.798ZM2255.34 627.28C2197.13 627.28 2150.22 607.475 2117.83 573.715C2085.37 539.88 2065.85 490.302 2065.85 427.86H2025.85C2025.85 498.725 2048.15 558.858 2088.97 601.406C2129.86 644.029 2187.69 667.28 2255.34 667.28V627.28ZM2065.85 427.86C2065.85 363.56 2086.68 312.254 2122.06 277.06C2157.45 241.858 2209.19 220.988 2274.38 220.988V180.988C2200.47 180.988 2137.95 204.83 2093.85 248.702C2049.74 292.582 2025.85 354.712 2025.85 427.86H2065.85ZM2274.38 220.988C2321.65 220.988 2358.56 231.958 2383.03 248.738C2407.06 265.223 2419.15 287.158 2419.15 311.94H2459.15C2459.15 272.138 2438.96 238.596 2405.65 215.752C2372.78 193.202 2327.3 180.988 2274.38 180.988V220.988ZM2222.82 415.517C2260.65 412.815 2282.41 390.55 2293.65 365.588C2304.32 341.894 2305.97 315.27 2305.97 298.692H2265.97C2265.97 313.578 2264.31 333.322 2257.18 349.165C2250.62 363.74 2240.09 374.181 2219.97 375.619L2222.82 415.517ZM2305.97 298.692C2305.97 280.395 2303.58 261.585 2297.09 246.559C2290.54 231.417 2277.43 215.764 2255.34 215.764V255.764C2255.81 255.764 2255.92 255.785 2256.37 256.162C2257.15 256.811 2258.7 258.561 2260.37 262.436C2263.81 270.387 2265.97 283.041 2265.97 298.692H2305.97ZM2255.34 215.764C2246.71 215.764 2237.72 218.197 2229.53 224.203C2221.56 230.042 2215.49 238.418 2210.92 248.552C2202.01 268.316 2197.25 298.255 2197.25 341.748H2237.25C2237.25 299.957 2242.01 276.904 2247.38 264.997C2249.96 259.296 2252.22 257.166 2253.18 256.459C2253.92 255.919 2254.45 255.764 2255.34 255.764V215.764ZM2197.25 341.748C2197.25 362.975 2199.92 382.666 2201.5 397.662L2241.28 393.474C2239.55 377.006 2237.25 360.265 2237.25 341.748H2197.25ZM2617.25 519.768L2632.93 532.187L2646.75 514.743L2627.93 502.858L2617.25 519.768ZM2649.54 329.328L2633.87 316.909L2616.15 339.277L2643.22 348.302L2649.54 329.328ZM2595.6 282.96C2595.6 316.895 2613.32 340.284 2635.8 357.459C2657.26 373.858 2685.66 386.494 2710.38 398.459C2736.37 411.037 2759.52 423.353 2776.35 439.626C2792.35 455.089 2802.6 474.083 2802.6 501.552H2842.6C2842.6 461.953 2826.97 432.923 2804.15 410.867C2782.17 389.621 2753.57 374.924 2727.81 362.455C2700.78 349.373 2677.43 338.929 2660.08 325.674C2643.75 313.196 2635.6 300.361 2635.6 282.96H2595.6ZM2802.6 501.552C2802.6 564.329 2744.83 627.28 2625.53 627.28V667.28C2757.94 667.28 2842.6 594.439 2842.6 501.552H2802.6ZM2625.53 627.28C2577 627.28 2539.02 616.294 2513.87 600.844C2488.45 585.232 2478.28 566.742 2478.28 551.232H2438.28C2438.28 585.402 2460.39 614.936 2492.93 634.928C2525.74 655.082 2571.39 667.28 2625.53 667.28V627.28ZM2478.28 551.232C2478.28 532.309 2494.86 511.616 2531.97 511.616V471.616C2479.65 471.616 2438.28 503.915 2438.28 551.232H2478.28ZM2531.97 511.616C2551.54 511.616 2577.69 518.439 2606.57 536.678L2627.93 502.858C2593.88 481.353 2560.42 471.616 2531.97 471.616V511.616ZM2601.58 507.349C2588.23 524.2 2578.69 539.565 2572.79 553.467C2566.94 567.235 2564.14 580.791 2566 593.38C2567.96 606.668 2574.95 617.435 2585.54 624.394C2595.56 630.974 2607.48 633.332 2618.91 633.332V593.332C2612.54 593.332 2609.03 591.964 2607.51 590.963C2606.56 590.34 2605.89 589.67 2605.57 587.537C2605.16 584.705 2605.46 578.855 2609.6 569.102C2613.69 559.484 2621.02 547.214 2632.93 532.187L2601.58 507.349ZM2618.91 633.332C2655.17 633.332 2688.59 607.332 2688.59 567.792H2648.59C2648.59 581.244 2637.3 593.332 2618.91 593.332V633.332ZM2688.59 567.792C2688.59 537.402 2668.91 516.768 2647.84 501.768C2627.13 487.019 2598.93 473.597 2574.65 460.385C2522.88 432.227 2481.59 401.682 2481.59 343.404H2441.59C2441.59 426.714 2503.79 467.377 2555.53 495.523C2583 510.463 2606.55 521.467 2624.64 534.353C2642.39 546.987 2648.59 557.196 2648.59 567.792H2688.59ZM2481.59 343.404C2481.59 311.636 2493.99 281.715 2520.02 259.451C2546.24 237.031 2587.97 220.988 2648.72 220.988V180.988C2581.12 180.988 2529.29 198.893 2494.03 229.051C2458.58 259.365 2441.59 300.652 2441.59 343.404H2481.59ZM2648.72 220.988C2693.59 220.988 2729.91 229.89 2754.26 243.494C2778.6 257.097 2788.52 273.646 2788.52 289.584H2828.52C2828.52 254.186 2805.73 226.437 2773.77 208.576C2741.81 190.716 2698.24 180.988 2648.72 180.988V220.988ZM2788.52 289.584C2788.52 300.495 2784.48 308.006 2776.98 313.469C2768.67 319.521 2754.32 324.232 2732.34 324.232V364.232C2759.22 364.232 2782.96 358.593 2800.52 345.808C2818.89 332.434 2828.52 312.621 2828.52 289.584H2788.52ZM2732.34 324.232C2711.58 324.232 2686.4 320.53 2655.87 310.354L2643.22 348.302C2677.28 359.654 2706.74 364.232 2732.34 364.232V324.232ZM2665.22 341.747C2691.17 308.988 2704.01 280.213 2701.63 256.634C2700.35 243.917 2694.59 232.971 2684.87 225.533C2675.55 218.407 2664.29 215.764 2653.68 215.764V255.764C2657.98 255.764 2659.97 256.847 2660.56 257.302C2660.75 257.446 2661.56 257.936 2661.83 260.641C2662.56 267.905 2658.42 285.912 2633.87 316.909L2665.22 341.747ZM2653.68 215.764C2636.38 215.764 2621.02 222.8 2610.41 235.905C2600.14 248.571 2595.6 265.243 2595.6 282.96H2635.6C2635.6 271.697 2638.5 264.771 2641.49 261.084C2644.12 257.836 2647.81 255.764 2653.68 255.764V215.764ZM2840.74 639L2820.94 636.181L2817.69 659H2840.74V639ZM2840.74 37.872L2846.49 18.7155L2816.55 9.73349L2820.94 40.6817L2840.74 37.872ZM3046.91 0.611977L3066.72 3.38493L3072.65 -38.9729L3036.34 -16.366L3046.91 0.611977ZM3021.24 323.532H3001.24L3040.14 330.074L3021.24 323.532ZM3264.68 322.704L3244.81 320.367L3244.81 320.44L3244.8 320.513L3264.68 322.704ZM3284.55 639V659H3309.01L3304.15 635.027L3284.55 639ZM3078.38 639L3058.82 634.801L3053.63 659H3078.38V639ZM3022.07 385.632L3042.05 386.491L3042.06 386.395L3042.06 386.298L3022.07 385.632ZM3046.91 639V659H3070.12L3066.69 636.05L3046.91 639ZM2860.54 641.819C2895.58 395.686 2895.58 282.011 2860.54 35.0623L2820.94 40.6817C2855.45 283.909 2855.45 393.794 2820.94 636.181L2860.54 641.819ZM2834.99 57.0285C2861.5 64.9794 2885.79 68.636 2909.46 68.636V28.636C2890.08 28.636 2869.66 25.6686 2846.49 18.7155L2834.99 57.0285ZM2909.46 68.636C2966.58 68.636 3012.78 45.4238 3057.48 17.5899L3036.34 -16.366C2993.28 10.4481 2955.02 28.636 2909.46 28.636V68.636ZM3027.11 -2.16098C3009.63 122.654 3001.24 222.981 3001.24 323.532H3041.24C3041.24 225.363 3049.42 126.97 3066.72 3.38493L3027.11 -2.16098ZM3040.14 330.074C3061.03 269.727 3105.24 220.988 3171.94 220.988V180.988C3081.32 180.988 3026.17 248.169 3002.34 316.99L3040.14 330.074ZM3171.94 220.988C3204.75 220.988 3222.97 231.857 3233.16 246.747C3244.11 262.741 3248.68 287.528 3244.81 320.367L3284.54 325.041C3288.96 287.5 3284.83 251.429 3266.18 224.16C3246.76 195.787 3214.48 180.988 3171.94 180.988V220.988ZM3244.8 320.513C3232.92 428.233 3239.81 518.971 3264.95 642.973L3304.15 635.027C3279.61 513.941 3273.25 427.487 3284.56 324.895L3244.8 320.513ZM3284.55 619H3078.38V659H3284.55V619ZM3097.93 643.199C3127.15 507.113 3131.5 429.513 3131.5 393.084H3091.5C3091.5 426.207 3087.56 500.959 3058.82 634.801L3097.93 643.199ZM3131.5 393.084C3131.5 364.332 3128.47 342.488 3120.73 327.285C3116.61 319.211 3110.88 312.444 3103.18 307.879C3095.52 303.341 3087.43 301.876 3080.03 301.876V341.876C3082.16 341.876 3082.76 342.274 3082.79 342.29C3082.85 342.329 3083.06 342.461 3083.42 342.855C3083.79 343.272 3084.38 344.06 3085.09 345.447C3088.31 351.772 3091.5 365.532 3091.5 393.084H3131.5ZM3080.03 301.876C3056.24 301.876 3036.85 316.636 3024.43 331.734C3011.96 346.897 3002.69 366.929 3002.08 384.966L3042.06 386.298C3042.29 379.495 3046.68 367.649 3055.32 357.144C3064.02 346.574 3073.19 341.876 3080.03 341.876V301.876ZM3002.09 384.773C2998.68 464.181 3013.2 548.515 3027.13 641.95L3066.69 636.05C3052.48 540.701 3038.85 461.091 3042.05 386.491L3002.09 384.773ZM3046.91 619H2840.74V659H3046.91V619ZM3795.37 480.852L3798.97 500.526L3843.1 492.459L3807.6 465.026L3795.37 480.852ZM3743.21 196.02L3737.57 176.83L3699.62 187.975L3731.1 211.934L3743.21 196.02ZM3680.15 152.136C3680.15 197.631 3706.35 228.266 3739.6 250.932C3771.99 273.004 3815.07 290.176 3854.35 307.562C3894.96 325.539 3932.75 344.171 3960.5 369.6C3987.38 394.228 4004.73 425.107 4004.73 469.26H4044.73C4044.73 412.397 4021.5 371.24 3987.53 340.107C3954.42 309.776 3911.06 288.922 3870.54 270.985C3828.67 252.456 3790.6 237.284 3762.13 217.879C3734.53 199.067 3720.15 179.091 3720.15 152.136H3680.15ZM4004.73 469.26C4004.73 518.552 3982.88 556.962 3942.62 583.869C3901.5 611.342 3840.24 627.28 3762.25 627.28V667.28C3844.9 667.28 3914.88 650.512 3964.84 617.127C4015.65 583.176 4044.73 532.576 4044.73 469.26H4004.73ZM3762.25 627.28C3694.67 627.28 3640.28 615.357 3603.58 595.787C3567.16 576.368 3550.41 551.021 3550.41 523.08H3510.41C3510.41 570.487 3540.04 607.24 3584.76 631.084C3629.2 654.777 3690.73 667.28 3762.25 667.28V627.28ZM3550.41 523.08C3550.41 482.885 3585.99 442.064 3647.99 442.064V402.064C3567.57 402.064 3510.41 457.291 3510.41 523.08H3550.41ZM3647.99 442.064C3684.07 442.064 3731.22 456.551 3783.14 496.678L3807.6 465.026C3750.23 420.697 3694.71 402.064 3647.99 402.064V442.064ZM3791.78 461.178C3707.27 476.626 3671.87 533.053 3671.87 570.276H3711.87C3711.87 556.163 3729.47 513.23 3798.97 500.526L3791.78 461.178ZM3671.87 570.276C3671.87 590.712 3682.44 607.328 3698.44 618.047C3713.94 628.424 3734.31 633.332 3756.46 633.332V593.332C3739.69 593.332 3727.77 589.546 3720.7 584.812C3714.14 580.42 3711.87 575.508 3711.87 570.276H3671.87ZM3756.46 633.332C3783.95 633.332 3812.35 625.563 3834.4 609.216C3856.97 592.482 3872.5 566.888 3872.5 533.844H3832.5C3832.5 552.964 3824.03 567.114 3810.58 577.083C3796.61 587.439 3776.98 593.332 3756.46 593.332V633.332ZM3872.5 533.844C3872.5 491.357 3846.41 462.842 3814.7 441.69C3783.64 420.969 3742.08 404.019 3704.4 386.621C3665.38 368.608 3628.99 349.56 3602.27 323.917C3576.33 299.017 3559.52 267.922 3559.52 224.172H3519.52C3519.52 280.195 3541.83 321.344 3574.57 352.774C3606.54 383.461 3648.4 404.829 3687.63 422.938C3728.19 441.661 3764.88 456.537 3792.5 474.965C3819.48 492.963 3832.5 510.919 3832.5 533.844H3872.5ZM3559.52 224.172C3559.52 177.814 3578.51 134.817 3616.34 103.08C3654.35 71.1858 3712.77 49.5919 3792.89 49.5919V9.59195C3705.75 9.59195 3637.48 33.1241 3590.63 72.4375C3543.58 111.909 3519.52 166.202 3519.52 224.172H3559.52ZM3792.89 49.5919C3848.33 49.5919 3898.91 60.0189 3934.84 78.7844C3970.64 97.4749 3989 122.506 3989 152.136H4029C4029 102.278 3996.85 66.0371 3953.36 43.3276C3910.01 20.693 3852.54 9.59195 3792.89 9.59195V49.5919ZM3989 152.136C3989 194.185 3953.2 234.808 3891.42 234.808V274.808C3972.05 274.808 4029 219.383 4029 152.136H3989ZM3891.42 234.808C3854.56 234.808 3808.19 220.35 3755.32 180.106L3731.1 211.934C3789.18 256.146 3843.83 274.808 3891.42 274.808V234.808ZM3748.84 215.21C3803.11 199.273 3833.46 179.218 3850.02 158.852C3867.25 137.653 3867.54 118.542 3867.54 110.736H3827.54C3827.54 114.522 3827.83 122.735 3818.98 133.621C3809.45 145.34 3787.63 162.131 3737.57 176.83L3748.84 215.21ZM3867.54 110.736C3867.54 88.3548 3855.47 70.9706 3839.81 59.9271C3824.42 49.0698 3804.74 43.54 3785.44 43.54V83.54C3797.6 83.54 3808.97 87.1181 3816.76 92.6139C3824.29 97.9234 3827.54 104.137 3827.54 110.736H3867.54ZM3785.44 43.54C3725.51 43.54 3680.15 93.1194 3680.15 152.136H3720.15C3720.15 113.449 3749.32 83.54 3785.44 83.54V43.54ZM4038.29 639L4018.71 634.929L4013.7 659H4038.29V639ZM4038.29 226.656L4042.21 207.044L4012.55 201.112L4018.71 230.727L4038.29 226.656ZM4244.46 200.988L4264.04 205.059L4271.9 167.28L4236.5 182.641L4244.46 200.988ZM4244.46 639V659H4269.05L4264.04 634.929L4244.46 639ZM4064.91 110.736C4064.91 89.0159 4072.79 72.0003 4085.76 60.254C4098.91 48.3512 4118.86 40.484 4145.1 40.484V0.483968C4110.9 0.483968 4080.75 10.8327 4058.92 30.6009C4036.91 50.5257 4024.91 78.6361 4024.91 110.736H4064.91ZM4145.1 40.484C4170.86 40.484 4190.6 48.312 4203.67 60.2143C4216.58 71.9704 4224.46 89.01 4224.46 110.736H4264.46C4264.46 78.642 4252.47 50.5555 4230.6 30.6406C4208.9 10.872 4178.96 0.483968 4145.1 0.483968V40.484ZM4224.46 110.736C4224.46 132.941 4216.54 149.927 4203.72 161.524C4190.7 173.298 4170.98 180.988 4145.1 180.988V220.988C4178.84 220.988 4208.79 210.876 4230.55 191.186C4252.51 171.319 4264.46 143.179 4264.46 110.736H4224.46ZM4145.1 180.988C4118.74 180.988 4098.81 173.26 4085.71 161.485C4072.83 149.897 4064.91 132.936 4064.91 110.736H4024.91C4024.91 143.184 4036.87 171.349 4058.96 191.225C4080.86 210.914 4111.01 220.988 4145.1 220.988V180.988ZM4057.87 643.071C4075.37 558.899 4084.37 496.093 4084.37 432.828C4084.37 369.563 4075.37 306.757 4057.87 222.585L4018.71 230.727C4035.98 313.811 4044.37 373.549 4044.37 432.828C4044.37 492.107 4035.98 551.845 4018.71 634.929L4057.87 643.071ZM4034.37 246.268C4060.19 251.433 4083.89 254.108 4106.18 254.108V214.108C4087.08 214.108 4066.06 211.815 4042.21 207.044L4034.37 246.268ZM4106.18 254.108C4162.3 254.108 4207.46 238.848 4252.42 219.335L4236.5 182.641C4193.7 201.216 4154.39 214.108 4106.18 214.108V254.108ZM4224.88 196.917C4189.54 366.858 4189.54 473.13 4224.88 643.071L4264.04 634.929C4229.82 470.358 4229.82 369.63 4264.04 205.059L4224.88 196.917ZM4244.46 619H4038.29V659H4244.46V619ZM4266.31 639L4246.73 634.929L4241.72 659H4266.31V639ZM4266.31 226.656L4270.23 207.044L4240.57 201.112L4246.73 230.727L4266.31 226.656ZM4472.48 200.988L4492.15 204.646L4499.03 167.668L4464.52 182.641L4472.48 200.988ZM4455.09 299.52L4435.28 296.842L4473.2 308.023L4455.09 299.52ZM4689.42 322.704L4669.56 320.367L4669.55 320.44L4669.54 320.513L4689.42 322.704ZM4709.29 639V659H4733.75L4728.89 635.027L4709.29 639ZM4503.12 639L4483.54 634.916L4478.52 659H4503.12V639ZM4447.64 384.804L4467.51 387.081L4467.53 386.938L4467.54 386.794L4447.64 384.804ZM4472.48 639V659H4496.96L4492.08 635.014L4472.48 639ZM4285.89 643.071C4303.39 558.899 4312.39 496.093 4312.39 432.828C4312.39 369.563 4303.39 306.757 4285.89 222.585L4246.73 230.727C4264 313.811 4272.39 373.549 4272.39 432.828C4272.39 492.107 4264 551.845 4246.73 634.929L4285.89 643.071ZM4262.39 246.268C4288.22 251.433 4311.91 254.108 4334.21 254.108V214.108C4315.1 214.108 4294.09 211.815 4270.23 207.044L4262.39 246.268ZM4334.21 254.108C4390.33 254.108 4435.48 238.848 4480.44 219.335L4464.52 182.641C4421.72 201.216 4382.41 214.108 4334.21 214.108V254.108ZM4452.82 197.33C4446.29 232.407 4439.5 265.553 4435.28 296.842L4474.91 302.198C4478.97 272.215 4485.42 240.777 4492.15 204.646L4452.82 197.33ZM4473.2 308.023C4496.75 257.88 4537.32 220.988 4596.68 220.988V180.988C4516.94 180.988 4464.78 231.864 4436.99 291.017L4473.2 308.023ZM4596.68 220.988C4629.49 220.988 4647.72 231.857 4657.91 246.747C4668.85 262.741 4673.42 287.528 4669.56 320.367L4709.28 325.041C4713.7 287.5 4709.58 251.429 4690.92 224.16C4671.5 195.787 4639.22 180.988 4596.68 180.988V220.988ZM4669.54 320.513C4657.66 428.233 4664.55 518.971 4689.69 642.973L4728.89 635.027C4704.35 513.941 4697.99 427.487 4709.3 324.895L4669.54 320.513ZM4709.29 619H4503.12V659H4709.29V619ZM4522.7 643.084C4551.04 507.195 4556.24 429.602 4556.24 393.084H4516.24C4516.24 426.118 4511.5 500.877 4483.54 634.916L4522.7 643.084ZM4556.24 393.084C4556.24 364.332 4553.22 342.488 4545.47 327.285C4541.35 319.211 4535.63 312.444 4527.92 307.879C4520.26 303.341 4512.17 301.876 4504.77 301.876V341.876C4506.9 341.876 4507.5 342.274 4507.53 342.29C4507.6 342.329 4507.81 342.461 4508.16 342.855C4508.53 343.272 4509.12 344.06 4509.83 345.447C4513.05 351.772 4516.24 365.532 4516.24 393.084H4556.24ZM4504.77 301.876C4480.91 301.876 4462.1 316.507 4450.06 331.5C4437.9 346.632 4429.43 365.931 4427.74 382.814L4467.54 386.794C4468.34 378.837 4473.11 366.672 4481.24 356.55C4489.49 346.289 4498.01 341.876 4504.77 341.876V301.876ZM4427.77 382.527C4418.25 465.62 4433.08 545.622 4452.88 642.986L4492.08 635.014C4472.14 536.97 4458.82 462.964 4467.51 387.081L4427.77 382.527ZM4472.48 619H4266.31V659H4472.48V619ZM4987.26 528.048L5007.25 528.654L4968.31 521.65L4987.26 528.048ZM4970.7 282.132L4953.14 291.709L4990.16 277.5L4970.7 282.132ZM4959.94 226.656L4963.86 207.044L4934.18 201.11L4940.36 230.735L4959.94 226.656ZM5166.11 200.988L5185.71 204.947L5193.3 167.387L5158.15 182.641L5166.11 200.988ZM5142.1 657.216L5122.17 655.498L5122.17 655.502L5142.1 657.216ZM4746.31 648.936V628.936H4728.47L4726.44 646.659L4746.31 648.936ZM4754.59 648.936L4773.45 642.28L4768.74 628.936H4754.59V648.936ZM4870.51 714.476C4897.01 714.476 4919.55 708.46 4938.26 697.091C4956.93 685.744 4970.63 669.77 4980.58 651.611C5000.11 615.962 5005.98 570.412 5007.25 528.654L4967.27 527.442C4966.05 567.656 4960.33 605.32 4945.5 632.392C4938.27 645.594 4929.09 655.857 4917.49 662.907C4905.93 669.935 4890.79 674.476 4870.51 674.476V714.476ZM4968.31 521.65C4947.81 582.366 4906.42 627.28 4853.95 627.28V667.28C4932.3 667.28 4983.65 601.242 5006.21 534.446L4968.31 521.65ZM4853.95 627.28C4821.51 627.28 4795.54 611.499 4776.63 579.047C4757.17 545.627 4745.61 494.754 4745.61 427.86H4705.61C4705.61 498.414 4717.65 557.251 4742.07 599.179C4767.05 642.075 4805.25 667.28 4853.95 667.28V627.28ZM4745.61 427.86C4745.61 360.989 4757.16 308.085 4777.01 272.656C4796.41 238.026 4822.93 220.988 4855.61 220.988V180.988C4805.49 180.988 4767.01 208.662 4742.11 253.106C4717.66 296.751 4705.61 357.283 4705.61 427.86H4745.61ZM4855.61 220.988C4895.7 220.988 4930.02 249.318 4953.14 291.709L4988.26 272.555C4961.7 223.866 4916.53 180.988 4855.61 180.988V220.988ZM4990.16 277.5C4988.23 269.4 4986.66 260.985 4985 251.787C4983.37 242.726 4981.66 232.854 4979.52 222.577L4940.36 230.735C4942.35 240.33 4943.95 249.502 4945.63 258.864C4947.29 268.089 4949.03 277.476 4951.24 286.764L4990.16 277.5ZM4956.01 246.268C4981.84 251.433 5005.54 254.108 5027.83 254.108V214.108C5008.73 214.108 4987.71 211.815 4963.86 207.044L4956.01 246.268ZM5027.83 254.108C5083.95 254.108 5129.1 238.848 5174.07 219.335L5158.15 182.641C5115.34 201.216 5076.04 214.108 5027.83 214.108V254.108ZM5146.5 197.029C5128.93 284.039 5120.44 354.136 5120.44 428.688H5160.44C5160.44 357.512 5168.51 290.161 5185.71 204.947L5146.5 197.029ZM5120.44 428.688C5120.44 460.02 5121.9 505.678 5122.82 548.66C5123.76 592.342 5124.13 632.778 5122.17 655.498L5162.02 658.934C5164.2 633.63 5163.74 590.852 5162.82 547.801C5161.88 504.05 5160.44 459.456 5160.44 428.688H5120.44ZM5122.17 655.502C5116.31 723.668 5077.98 758.788 5035.39 777.86C4991.66 797.445 4944.12 799.504 4925.16 799.504V839.504C4945.94 839.504 5000.25 837.423 5051.74 814.366C5104.37 790.796 5154.64 744.772 5162.02 658.93L5122.17 655.502ZM4925.16 799.504C4902.86 799.504 4857.81 796.575 4821.19 776.332C4803.27 766.427 4787.88 752.658 4777.76 733.369C4767.67 714.111 4762 687.749 4766.18 651.213L4726.44 646.659C4721.52 689.611 4727.85 724.314 4742.34 751.942C4756.81 779.538 4778.57 798.475 4801.84 811.34C4847.61 836.637 4901.09 839.504 4925.16 839.504V799.504ZM4746.31 668.936H4754.59V628.936H4746.31V668.936ZM4735.73 655.592C4740.16 668.129 4749.66 677.499 4759.36 684.303C4769.28 691.264 4781.22 696.813 4793.49 701.129C4817.98 709.744 4846.72 714.476 4870.51 714.476V674.476C4851.25 674.476 4827 670.514 4806.77 663.397C4796.68 659.847 4788.34 655.77 4782.32 651.554C4776.09 647.179 4773.99 643.819 4773.45 642.28L4735.73 655.592ZM4937.58 546.392C4955.3 546.392 4969.55 539.459 4979.97 528.282C4989.81 517.733 4995.45 504.287 4998.89 491.719C5005.72 466.759 5005.6 438.176 5005.6 422.892H4965.6C4965.6 439.072 4965.49 462.238 4960.31 481.163C4957.74 490.537 4954.39 497.066 4950.71 501.008C4947.63 504.32 4943.87 506.392 4937.58 506.392V546.392ZM5005.6 422.892C5005.6 406.997 5004.37 379.329 4996.85 354.988C4989.73 331.968 4973.35 301.876 4937.58 301.876V341.876C4944.87 341.876 4952.5 346.974 4958.63 366.803C4964.35 385.311 4965.6 408.151 4965.6 422.892H5005.6ZM4937.58 301.876C4912.3 301.876 4897.61 323.411 4890.08 342.628C4881.92 363.466 4877.84 391.23 4877.84 422.064H4917.84C4917.84 394.11 4921.62 371.78 4927.32 357.221C4930.18 349.93 4933.1 345.659 4935.31 343.481C4936.34 342.46 4937.03 342.082 4937.29 341.96C4937.5 341.865 4937.54 341.876 4937.58 341.876V301.876ZM4877.84 422.064C4877.84 452.923 4881.93 481.547 4889.95 503.216C4893.94 514.004 4899.32 524.2 4906.63 532.018C4914.15 540.057 4924.59 546.392 4937.58 546.392V506.392C4938.56 506.392 4938.03 507.035 4935.85 504.697C4933.46 502.14 4930.4 497.276 4927.46 489.331C4921.61 473.533 4917.84 449.993 4917.84 422.064H4877.84ZM5184.85 639L5165.05 636.181L5161.8 659H5184.85V639ZM5184.85 37.872L5190.6 18.7155L5160.66 9.73349L5165.05 40.6817L5184.85 37.872ZM5391.03 0.611977L5410.83 3.38493L5416.76 -38.9729L5380.45 -16.366L5391.03 0.611977ZM5365.36 323.532H5345.36L5384.26 330.074L5365.36 323.532ZM5608.79 322.704L5588.93 320.367L5588.92 320.44L5588.91 320.513L5608.79 322.704ZM5628.66 639V659H5653.12L5648.26 635.027L5628.66 639ZM5422.49 639L5402.94 634.801L5397.74 659H5422.49V639ZM5366.19 385.632L5386.17 386.491L5386.17 386.395L5386.17 386.298L5366.19 385.632ZM5391.03 639V659H5414.23L5410.81 636.05L5391.03 639ZM5204.65 641.819C5239.7 395.686 5239.7 282.011 5204.66 35.0623L5165.05 40.6817C5199.56 283.909 5199.56 393.794 5165.05 636.181L5204.65 641.819ZM5179.11 57.0285C5205.61 64.9794 5229.9 68.636 5253.58 68.636V28.636C5234.2 28.636 5213.78 25.6686 5190.6 18.7155L5179.11 57.0285ZM5253.58 68.636C5310.69 68.636 5356.89 45.4238 5401.6 17.5899L5380.45 -16.366C5337.39 10.4481 5299.14 28.636 5253.58 28.636V68.636ZM5371.22 -2.16098C5353.75 122.654 5345.36 222.981 5345.36 323.532H5385.36C5385.36 225.363 5393.53 126.97 5410.83 3.38493L5371.22 -2.16098ZM5384.26 330.074C5405.15 269.727 5449.36 220.988 5516.05 220.988V180.988C5425.43 180.988 5370.28 248.169 5346.46 316.99L5384.26 330.074ZM5516.05 220.988C5548.86 220.988 5567.09 231.857 5577.28 246.747C5588.22 262.741 5592.79 287.528 5588.93 320.367L5628.65 325.041C5633.07 287.5 5628.95 251.429 5610.29 224.16C5590.88 195.787 5558.59 180.988 5516.05 180.988V220.988ZM5588.91 320.513C5577.04 428.233 5583.93 518.971 5609.06 642.973L5648.26 635.027C5623.72 513.941 5617.36 427.487 5628.67 324.895L5588.91 320.513ZM5628.66 619H5422.49V659H5628.66V619ZM5442.04 643.199C5471.27 507.113 5475.61 429.513 5475.61 393.084H5435.61C5435.61 426.207 5431.67 500.959 5402.94 634.801L5442.04 643.199ZM5475.61 393.084C5475.61 364.332 5472.59 342.488 5464.84 327.285C5460.72 319.211 5455 312.444 5447.29 307.879C5439.64 303.341 5431.54 301.876 5424.15 301.876V341.876C5426.27 341.876 5426.87 342.274 5426.9 342.29C5426.97 342.329 5427.18 342.461 5427.53 342.855C5427.9 343.272 5428.49 344.06 5429.2 345.447C5432.42 351.772 5435.61 365.532 5435.61 393.084H5475.61ZM5424.15 301.876C5400.35 301.876 5380.96 316.636 5368.54 331.734C5356.07 346.897 5346.8 366.929 5346.2 384.966L5386.17 386.298C5386.4 379.495 5390.79 367.649 5399.43 357.144C5408.13 346.574 5417.3 341.876 5424.15 341.876V301.876ZM5346.2 384.773C5342.79 464.181 5357.31 548.515 5371.24 641.95L5410.81 636.05C5396.59 540.701 5382.96 461.091 5386.17 386.491L5346.2 384.773ZM5391.03 619H5184.85V659H5391.03V619Z" fill="white" mask="url(#path-1-outside-1_1202_260)"/>
</svg>
